<svg xmlns="http://www.w3.org/2000/svg" width="40" height="20" viewBox="0 0 40 20">
  <g fill="none" fill-rule="evenodd">
    <rect width="40" height="20" fill="#EAF5FA" rx="4"/>
    <path fill="#A8CEFF" fill-rule="nonzero" d="M4,1 C2.34314575,1 1,2.34314575 1,4 L1,16 C1,17.6568542 2.34314575,19 4,19 L36,19 C37.6568542,19 39,17.6568542 39,16 L39,4 C39,2.34314575 37.6568542,1 36,1 L4,1 Z M4,0 L36,0 C38.209139,-4.05812251e-16 40,1.790861 40,4 L40,16 C40,18.209139 38.209139,20 36,20 L4,20 C1.790861,20 2.705415e-16,18.209139 0,16 L0,4 C-2.705415e-16,1.790861 1.790861,4.05812251e-16 4,0 Z"/>
    <path fill="#4689DF" d="M12.078125,7.22265625 L15.2890625,7.22265625 L15.2890625,6.0390625 L12.5351562,6.0390625 L12.5351562,5.2421875 L15.2890625,5.2421875 L15.2890625,4 L16.1796875,4 L16.1796875,5.2421875 L18.96875,5.2421875 L18.96875,6.0390625 L16.1796875,6.0390625 L16.1796875,7.22265625 L19.5195312,7.22265625 L19.5195312,8.01953125 C19.1601545,8.70703469 18.7929706,9.31249738 18.4179688,9.8359375 C18.1132797,9.6953118 17.8320325,9.5898441 17.5742188,9.51953125 C17.9492206,9.01952875 18.2773423,8.51953375 18.5585938,8.01953125 L12.078125,8.01953125 L12.078125,7.22265625 Z M12.03125,11.8046875 L15.5585938,11.8046875 C15.7382821,11.0859339 15.8203126,9.96094516 15.8046875,8.4296875 L16.6601562,8.4296875 C16.6601562,9.91406992 16.5859382,11.0390587 16.4375,11.8046875 L19.53125,11.8046875 L19.53125,12.6015625 L16.4375,12.6015625 C17.5078179,13.3125036 18.5742134,14.0585898 19.6367188,14.8398438 L18.9804688,15.5664062 C18.0585891,14.7617147 17.0351619,13.9765663 15.9101562,13.2109375 C15.2070277,14.3125055 13.9414154,15.1210912 12.1132812,15.6367188 C11.9804681,15.3710924 11.8164072,15.0976577 11.6210938,14.8164062 C13.5429784,14.2929661 14.7539037,13.5546923 15.2539062,12.6015625 L12.03125,12.6015625 L12.03125,11.8046875 Z M9.40625,10.8085938 C10.2578168,10.7304684 11.0546838,10.6367193 11.796875,10.5273438 C11.7656248,10.8632829 11.7382814,11.1289053 11.7148438,11.3242188 C10.8007767,11.4335943 9.69141277,11.5820303 8.38671875,11.7695312 L8.19921875,10.9140625 C8.68359617,10.4999979 9.27734023,9.69531848 9.98046875,8.5 C9.26171516,8.54687523 8.67968973,8.58984355 8.234375,8.62890625 L8,7.85546875 C8.59375297,7.04296469 9.2460902,5.77344613 9.95703125,4.046875 L10.8476562,4.375 C10.1445277,5.75000688 9.51953398,6.88671426 8.97265625,7.78515625 C9.38672082,7.78515625 9.85937234,7.77734383 10.390625,7.76171875 C10.6640639,7.26171625 10.9531235,6.7070343 11.2578125,6.09765625 L12.078125,6.484375 C11.0859325,8.24219629 10.1953164,9.68358812 9.40625,10.8085938 Z M8.08203125,13.6210938 C9.30859988,13.4179677 10.570306,13.1835951 11.8671875,12.9179688 C11.8359373,13.3398459 11.8203125,13.6289055 11.8203125,13.7851562 C10.6796818,14.0117199 9.51953715,14.253905 8.33984375,14.5117188 L8.08203125,13.6210938 Z M12.21875,10.28125 L12.6875,9.73046875 C13.4531288,10.2070336 14.0429667,10.6249982 14.4570312,10.984375 L13.9179688,11.6289062 C13.5664045,11.2929671 13.0000039,10.8437528 12.21875,10.28125 Z M13.0390625,8.98046875 L13.5195312,8.41796875 C14.1445344,8.76953301 14.7265598,9.16406031 15.265625,9.6015625 L14.7382812,10.234375 C14.2382787,9.82812297 13.6718782,9.4101584 13.0390625,8.98046875 Z M20.8203125,5.03125 L24.1835938,5.03125 C24.1992188,4.67968574 24.2070312,4.35156402 24.2070312,4.046875 L25.0507812,4.046875 C25.0507812,4.35156402 25.0429688,4.67968574 25.0273438,5.03125 L27.0664062,5.03125 L27.0664062,4.046875 L27.9101562,4.046875 L27.9101562,5.03125 L30.734375,5.03125 L30.734375,7.703125 L29.890625,7.703125 L29.890625,7.41015625 L27.9101562,7.41015625 L27.9101562,8.46484375 L31.2617188,8.46484375 C31.2460937,9.02734656 31.2031254,9.50781051 31.1328125,9.90625 C31.0468746,10.4531277 30.6953156,10.7265625 30.078125,10.7265625 L29.7265625,10.7265625 L29.7265625,13.5859375 L28.8828125,13.5859375 L28.8828125,11.1953125 L23,11.1953125 L23,13.7265625 L22.15625,13.7265625 L22.15625,11.1953125 C21.6796851,11.4062511 21.1367218,11.6015616 20.5273438,11.78125 C20.4257807,11.5546864 20.2578137,11.2851578 20.0234375,10.9726562 C21.8046964,10.5898418 22.9804659,9.98047293 23.5507812,9.14453125 L20.9726562,9.14453125 L21.3476562,6.73046875 L24.1367188,6.73046875 C24.1601564,6.42577973 24.171875,6.08593938 24.171875,5.7109375 L20.8203125,5.7109375 L20.8203125,5.03125 Z M28.7304688,9.90625 C29.1679709,9.95312523 29.5312486,9.9765625 29.8203125,9.9765625 C30.1328141,9.9765625 30.3124998,9.85937617 30.359375,9.625 C30.3906252,9.45312414 30.4101562,9.29296949 30.4179688,9.14453125 L27.9101562,9.14453125 L27.9101562,10.2929688 L27.0664062,10.2929688 L27.0664062,9.14453125 L24.546875,9.14453125 C24.3359364,9.62109613 23.9687526,10.0546855 23.4453125,10.4453125 L28.8945312,10.4453125 C28.8554686,10.2968743 28.8007816,10.1171886 28.7304688,9.90625 Z M25.5195312,11.8515625 L26.3515625,11.8515625 C26.3515625,12.351565 26.2968755,12.7929668 26.1875,13.1757812 C27.9687589,13.6992214 29.5859302,14.2187474 31.0390625,14.734375 L30.6054688,15.578125 C29.0273359,14.9921846 27.4570391,14.4414088 25.8945312,13.9257812 C25.4101538,14.7148477 23.8086073,15.2695296 21.0898438,15.5898438 C20.9414055,15.2148419 20.8085943,14.9335947 20.6914062,14.7460938 C22.4961028,14.5742179 23.851558,14.2734396 24.7578125,13.84375 C25.2812526,13.5859362 25.5351563,12.9218804 25.5195312,11.8515625 Z M24.7695312,8.46484375 L27.0664062,8.46484375 L27.0664062,7.41015625 L24.9335938,7.41015625 C24.8945311,7.82422082 24.8398441,8.1757798 24.7695312,8.46484375 Z M21.921875,8.46484375 L23.8789062,8.46484375 C23.9648442,8.19140488 24.0312498,7.8398459 24.078125,7.41015625 L22.0625,7.41015625 L21.921875,8.46484375 Z M24.9804688,6.73046875 L27.0664062,6.73046875 L27.0664062,5.7109375 L25.015625,5.7109375 C25.015625,6.07812684 25.0039064,6.41796719 24.9804688,6.73046875 Z M29.890625,5.7109375 L27.9101562,5.7109375 L27.9101562,6.73046875 L29.890625,6.73046875 L29.890625,5.7109375 Z"/>
  </g>
</svg>
