<?xml version="1.0" encoding="UTF-8"?>
<svg width="20px" height="20px" viewBox="0 0 20 20" version="1.1" xmlns="http://www.w3.org/2000/svg" xmlns:xlink="http://www.w3.org/1999/xlink">
    <!-- Generator: Sketch 44.1 (41455) - http://www.bohemiancoding.com/sketch -->
    <title>Tag-kemu</title>
    <desc>Created with Sketch.</desc>
    <defs></defs>
    <g id="Symbol" stroke="none" stroke-width="1" fill="none" fill-rule="evenodd">
        <g id="Tag-kemu">
            <rect id="Rectangle-50" fill="#EAF5FA" x="0" y="0" width="20" height="20" rx="4"></rect>
            <path d="M4,1 C2.34314575,1 1,2.34314575 1,4 L1,16 C1,17.6568542 2.34314575,19 4,19 L16,19 C17.6568542,19 19,17.6568542 19,16 L19,4 C19,2.34314575 17.6568542,1 16,1 L4,1 Z M4,0 L16,0 C18.209139,-4.05812251e-16 20,1.790861 20,4 L20,16 C20,18.209139 18.209139,20 16,20 L4,20 C1.790861,20 2.705415e-16,18.209139 0,16 L0,4 C-2.705415e-16,1.790861 1.790861,4.05812251e-16 4,0 Z" id="Rectangle-50" fill="#A8CEFF" fill-rule="nonzero"></path>
            <path d="M4,12.2734375 C4.89062945,11.078119 5.56249773,9.74610109 6.015625,8.27734375 L4.1640625,8.27734375 L4.1640625,7.4453125 L6.0859375,7.4453125 L6.0859375,5.72265625 C5.48437199,5.78515656 4.91797141,5.83984352 4.38671875,5.88671875 C4.33203098,5.5976548 4.25390676,5.3085952 4.15234375,5.01953125 C5.66797633,4.9101557 7.17186754,4.73828242 8.6640625,4.50390625 L8.96875,5.37109375 C8.26562148,5.46484422 7.59765941,5.54687465 6.96484375,5.6171875 L6.96484375,7.4453125 L8.828125,7.4453125 L8.828125,8.27734375 L6.96484375,8.27734375 L6.96484375,9.6015625 L7.48046875,9.1328125 C8.04297156,9.61718992 8.56249762,10.0898414 9.0390625,10.5507812 L8.3828125,11.21875 C7.88281,10.6562472 7.41015848,10.1679708 6.96484375,9.75390625 L6.96484375,15.4960938 L6.0859375,15.4960938 L6.0859375,10.2109375 C5.6249977,11.4140685 5.07812816,12.4335896 4.4453125,13.2695312 C4.31249934,12.9492171 4.16406332,12.6171892 4,12.2734375 Z M8.23046875,11.6523438 L12.8242188,11.2421875 L12.8242188,4 L13.7265625,4 L13.7265625,11.1601562 L15.578125,10.984375 L15.6484375,11.828125 L13.7265625,12.0039062 L13.7265625,15.4960938 L12.8242188,15.4960938 L12.8242188,12.0859375 L8.32421875,12.4960938 L8.23046875,11.6523438 Z M9.625,5.828125 L10.1640625,5.2421875 C11.0312543,5.90625332 11.7343723,6.48827875 12.2734375,6.98828125 L11.6640625,7.6796875 C11.1093722,7.10937215 10.4296915,6.49219082 9.625,5.828125 Z M8.93359375,8.640625 L9.49609375,8.04296875 C10.3867232,8.73828473 11.0585915,9.29296668 11.5117188,9.70703125 L10.9023438,10.421875 C10.5351544,10.0390606 9.87891098,9.44531652 8.93359375,8.640625 Z" id="科" fill="#4689DF"></path>
        </g>
    </g>
</svg>