<svg xmlns="http://www.w3.org/2000/svg" width="20" height="20" viewBox="0 0 20 20">
  <g fill="none" fill-rule="evenodd">
    <path fill="#D4901E" fill-rule="nonzero" d="M4,1 C2.34314575,1 1,2.34314575 1,4 L1,16 C1,17.6568542 2.34314575,19 4,19 L16,19 C17.6568542,19 19,17.6568542 19,16 L19,4 C19,2.34314575 17.6568542,1 16,1 L4,1 Z M4,0 L16,0 C18.209139,-4.05812251e-16 20,1.790861 20,4 L20,16 C20,18.209139 18.209139,20 16,20 L4,20 C1.790861,20 2.705415e-16,18.209139 0,16 L0,4 C-2.705415e-16,1.790861 1.790861,4.05812251e-16 4,0 Z"/>
    <rect width="18" height="18" x="1" y="1" fill="#F6A623" rx="3"/>
    <path fill="#FFF" d="M14,7.6 C14,5.35777949 11.9633308,4 9.5,4 C7.03666923,4 5,5.35777949 5,7.6 L6.8,7.6 C6.8,6.54222051 7.91333077,5.8 9.5,5.8 C11.0866692,5.8 12.2,6.54222051 12.2,7.6 C12.2,8.65777949 11.0866692,9.4 9.5,9.4 L8.6,9.4 L8.6,13 L10.4,13 C10.4,12.167631 10.4,11.9951079 10.4,11.1373647 C12.440367,10.8469896 14,9.5621368 14,7.6 Z"/>
    <rect width="2.067" height="2" x="8.59" y="14" fill="#FFF"/>
  </g>
</svg>
