<svg xmlns="http://www.w3.org/2000/svg" width="20" height="20" viewBox="0 0 20 20">
  <g fill="none" fill-rule="evenodd">
    <rect width="20" height="20" fill="#FFBA8D" rx="4"/>
    <path fill="#DB7D3E" fill-rule="nonzero" d="M4,1 C2.34314575,1 1,2.34314575 1,4 L1,16 C1,17.6568542 2.34314575,19 4,19 L16,19 C17.6568542,19 19,17.6568542 19,16 L19,4 C19,2.34314575 17.6568542,1 16,1 L4,1 Z M4,0 L16,0 C18.209139,-4.05812251e-16 20,1.790861 20,4 L20,16 C20,18.209139 18.209139,20 16,20 L4,20 C1.790861,20 2.705415e-16,18.209139 0,16 L0,4 C-2.705415e-16,1.790861 1.790861,4.05812251e-16 4,0 Z"/>
    <path fill="#E25600" d="M12.8710938,5.27539062 L12.8710938,7.97070312 C12.8710938,8.47070563 13.0820291,8.72070312 13.5039063,8.72070312 L13.9140625,8.72070312 C14.3828148,8.72070312 14.6562496,8.52929879 14.734375,8.14648438 C14.8203129,7.76366996 14.8867185,7.27539359 14.9335938,6.68164062 C15.3242207,6.85351648 15.6249989,6.97460902 15.8359375,7.04492188 C15.7656246,7.57617453 15.6875004,8.04101363 15.6015625,8.43945312 C15.4374992,9.18945688 14.8945359,9.56445312 13.9726563,9.56445312 L13.375,9.56445312 C12.4140577,9.56445312 11.9335938,9.06055191 11.9335938,8.05273438 L11.9335938,6.11914062 L8.68164062,6.11914062 C8.43163937,7.80274279 7.1562615,9.0566365 4.85546875,9.88085938 C4.66796781,9.55273273 4.48046969,9.27148555 4.29296875,9.03710938 C6.30469756,8.40429371 7.44726426,7.43164719 7.72070312,6.11914062 L4.84375,6.11914062 L4.84375,5.27539062 L7.80859375,5.27539062 C7.83203137,4.89648248 7.84375,4.46679928 7.84375,3.98632812 L8.78125,3.98632812 C8.78125,4.46679928 8.77148447,4.89648248 8.75195312,5.27539062 L12.8710938,5.27539062 Z M4.29296875,10.3144531 L9.484375,10.3144531 L9.484375,8.83789062 L10.4453125,8.83789062 L10.4453125,10.3144531 L15.3203125,10.3144531 L15.3203125,11.1582031 L10.4453125,11.1582031 L10.4453125,14.0527344 C10.4453125,14.9277387 10.0039107,15.3652344 9.12109375,15.3652344 L7.5859375,15.3652344 C7.57812496,15.3261717 7.5195318,15.0097686 7.41015625,14.4160156 C7.91015875,14.4628909 8.38671648,14.4863281 8.83984375,14.4863281 C9.2695334,14.4863281 9.484375,14.2480493 9.484375,13.7714844 L9.484375,11.1582031 L4.29296875,11.1582031 L4.29296875,10.3144531 Z M11.6992188,12.5996094 L12.2851562,11.8730469 C13.5742252,12.6855509 14.664058,13.4199186 15.5546875,14.0761719 L14.9101562,14.9316406 C13.8476509,14.0722613 12.7773491,13.2949254 11.6992188,12.5996094 Z M7.1875,11.7324219 L7.9140625,12.3769531 C6.9140575,13.3222704 5.85938055,14.2128864 4.75,15.0488281 C4.56249906,14.7832018 4.35546988,14.5292981 4.12890625,14.2871094 C5.21484918,13.5371056 6.23437023,12.6855516 7.1875,11.7324219 Z"/>
  </g>
</svg>
