<svg xmlns="http://www.w3.org/2000/svg" width="20" height="20" viewBox="0 0 20 20">
  <g fill="none" fill-rule="evenodd">
    <rect width="20" height="20" fill="#F2E9FD" rx="4"/>
    <path fill="#BCA8FF" fill-rule="nonzero" d="M4,1 C2.34314575,1 1,2.34314575 1,4 L1,16 C1,17.6568542 2.34314575,19 4,19 L16,19 C17.6568542,19 19,17.6568542 19,16 L19,4 C19,2.34314575 17.6568542,1 16,1 L4,1 Z M4,0 L16,0 C18.209139,-4.05812251e-16 20,1.790861 20,4 L20,16 C20,18.209139 18.209139,20 16,20 L4,20 C1.790861,20 2.705415e-16,18.209139 0,16 L0,4 C-2.705415e-16,1.790861 1.790861,4.05812251e-16 4,0 Z"/>
    <path fill="#9964F5" d="M9.578125,9.96289062 C10.4609419,8.3378825 11.1679661,6.42383914 11.6992188,4.22070312 L12.5546875,4.43164062 C12.3984367,5.07226883 12.218751,5.70898121 12.015625,6.34179688 L15.671875,6.34179688 L15.671875,7.18554688 L14.5234375,7.18554688 C14.4687497,9.20118195 13.9765671,10.9355396 13.046875,12.3886719 C13.7578161,13.3652393 14.6914005,14.1269504 15.8476562,14.6738281 C15.6289052,14.9941422 15.4453132,15.2832018 15.296875,15.5410156 C14.1562443,14.8847623 13.2265661,14.0839891 12.5078125,13.1386719 C11.7187461,14.1230518 10.6953188,14.9628871 9.4375,15.6582031 C9.2968743,15.4550771 9.10546996,15.1972672 8.86328125,14.8847656 C10.1679753,14.2206998 11.2109336,13.3808645 11.9921875,12.3652344 C11.4453098,11.4511673 11.0742197,10.4199276 10.8789062,9.27148438 C10.6992179,9.65429879 10.5156259,10.0332012 10.328125,10.4082031 C10.0781238,10.2441398 9.82812625,10.0957038 9.578125,9.96289062 Z M9.9296875,5.22851562 L10.6328125,5.68554688 C10.1562476,6.39648793 9.62500293,7.0996059 9.0390625,7.79492188 L9.90625,7.79492188 L9.90625,8.56835938 L8.37109375,8.56835938 C8.05859219,8.91992363 7.73828289,9.25976398 7.41015625,9.58789062 L9.33203125,9.58789062 L9.33203125,10.2910156 L7.8203125,11.7792969 L7.8203125,11.9902344 C8.45312816,11.8808588 9.15233992,11.7558601 9.91796875,11.6152344 C9.89453113,11.9121109 9.87890629,12.1816394 9.87109375,12.4238281 C9.23046555,12.5332037 8.54687863,12.6542962 7.8203125,12.7871094 L7.8203125,14.0644531 C7.87500027,15.033208 7.4218798,15.4980471 6.4609375,15.4589844 C6.12499832,15.4589844 5.69140891,15.451172 5.16015625,15.4355469 C5.12890609,15.1855456 5.08984398,14.8925798 5.04296875,14.5566406 C5.41015809,14.5957033 5.82812266,14.6191406 6.296875,14.6269531 C6.78906496,14.6738284 7.0156252,14.4550805 6.9765625,13.9707031 L6.9765625,12.9394531 C6.21874621,13.0800788 5.42187918,13.2324211 4.5859375,13.3964844 L4.4453125,12.5410156 C5.09375324,12.4472652 5.9374948,12.314454 6.9765625,12.1425781 L6.9765625,11.5566406 L8.20703125,10.3378906 L6.63671875,10.3378906 C5.98827801,10.9316436 5.33984699,11.4785131 4.69140625,11.9785156 C4.53515547,11.7597645 4.35156355,11.5371105 4.140625,11.3105469 C4.59375227,10.9902328 5.01562305,10.6660173 5.40625,10.3378906 L4.43359375,10.3378906 L4.43359375,9.58789062 L6.25,9.58789062 C6.61718934,9.25976398 6.97265453,8.91992363 7.31640625,8.56835938 L4.28125,8.56835938 L4.28125,7.79492188 L6.58984375,7.79492188 L6.58984375,6.59960938 L4.75,6.59960938 L4.75,5.82617188 L6.58984375,5.82617188 L6.58984375,4.23242188 L7.43359375,4.23242188 L7.43359375,5.82617188 L8.875,5.82617188 L8.875,6.59960938 L7.43359375,6.59960938 L7.43359375,7.79492188 L8.0078125,7.79492188 C8.71094102,7.00585543 9.35155961,6.15039523 9.9296875,5.22851562 Z M11.4648438,7.86523438 C11.6210945,9.28711648 11.9765597,10.5175729 12.53125,11.5566406 C13.2421911,10.3222595 13.6210935,8.86524277 13.6679688,7.18554688 L11.7226562,7.18554688 C11.6445309,7.41211051 11.5585942,7.63867074 11.4648438,7.86523438 Z"/>
  </g>
</svg>
