<svg xmlns="http://www.w3.org/2000/svg" width="20" height="20" viewBox="0 0 20 20">
  <g fill="none" fill-rule="evenodd">
    <rect width="20" height="20" fill="#FFEAC5" rx="4"/>
    <path fill="#F9D088" fill-rule="nonzero" d="M4,1 C2.34314575,1 1,2.34314575 1,4 L1,16 C1,17.6568542 2.34314575,19 4,19 L16,19 C17.6568542,19 19,17.6568542 19,16 L19,4 C19,2.34314575 17.6568542,1 16,1 L4,1 Z M4,0 L16,0 C18.209139,-4.05812251e-16 20,1.790861 20,4 L20,16 C20,18.209139 18.209139,20 16,20 L4,20 C1.790861,20 2.705415e-16,18.209139 0,16 L0,4 C-2.705415e-16,1.790861 1.790861,4.05812251e-16 4,0 Z"/>
    <path fill="#FA935A" d="M10.0167508,8 L7,8 L7,9 L10,9 L10,11 L7,11 L7,12 L10,12 L10,14.5 C10,14.7761424 10.2238576,15 10.5,15 C10.7761424,15 11,14.7761424 11,14.5 L11,12 L14,12 L14,11 L11,11 L11,9 L14,9 L14,8 L10.9832492,8 L14,4.5 L13,4 L10.5,7.14644661 L8,4 L7,4.5 L10.0167508,8 Z"/>
  </g>
</svg>
