<svg xmlns="http://www.w3.org/2000/svg" width="21" height="16" viewBox="0 0 21 16">
  <g fill="none" fill-rule="evenodd">
    <path fill="#D5E9E8" d="M19.552676,3.3213965 L19.552676,14.1426856 L17.3309963,14.1426856 L17.3309963,5.80967775 C17.0575574,6.0466581 16.6838632,6.25970936 16.2099025,6.44883791 C15.7359418,6.63796646 15.3007248,6.75531555 14.9042385,6.80088869 L14.9042385,4.907334 C16.1529426,4.54274885 17.2330099,4.0141083 18.1444728,3.3213965 L19.552676,3.3213965 Z"/>
    <path fill="#4A90E2" fill-rule="nonzero" d="M19.552676,3.3213965 L18.1444728,3.3213965 C17.2330099,4.0141083 16.1529426,4.54274885 14.9042385,4.907334 L14.9042385,6.80088869 C15.3007248,6.75531555 15.7359418,6.63796646 16.2099025,6.44883791 C16.6838632,6.25970936 17.0575574,6.0466581 17.3309963,5.80967775 L17.3309963,14.1426856 L19.552676,14.1426856 L19.552676,3.3213965 Z M15.0184291,7.79434754 L13.9042385,7.92241544 L13.9042385,4.15755294 L14.6239694,3.94741252 C15.7588785,3.6160522 16.728651,3.1413956 17.5393896,2.52523431 L17.8075972,2.3213965 L20.552676,2.3213965 L20.552676,15.1426856 L16.3309963,15.1426856 L16.3309963,7.47250878 C15.871302,7.63850467 15.4343336,7.74654242 15.0184291,7.79434754 Z"/>
    <path fill="#D5E9E8" d="M6.55267596,1.3213965 L6.55267596,12.1426856 L4.33099627,12.1426856 L4.33099627,3.80967775 C4.0575574,4.0466581 3.68386322,4.25970936 3.20990252,4.44883791 C2.73594182,4.63796646 2.30072481,4.75531555 1.90423846,4.80088869 L1.90423846,2.907334 C3.15294262,2.54274885 4.23300994,2.0141083 5.14447283,1.3213965 L6.55267596,1.3213965 Z"/>
    <path fill="#4A90E2" fill-rule="nonzero" d="M6.55267596,1.3213965 L5.14447283,1.3213965 C4.23300994,2.0141083 3.15294262,2.54274885 1.90423846,2.907334 L1.90423846,4.80088869 C2.30072481,4.75531555 2.73594182,4.63796646 3.20990252,4.44883791 C3.68386322,4.25970936 4.0575574,4.0466581 4.33099627,3.80967775 L4.33099627,12.1426856 L6.55267596,12.1426856 L6.55267596,1.3213965 Z M2.01842913,5.79434754 L0.904238458,5.92241544 L0.904238458,2.15755294 L1.62396941,1.94741252 C2.75887848,1.6160522 3.72865103,1.1413956 4.53938957,0.525234308 L4.8075972,0.321396502 L7.55267596,0.321396502 L7.55267596,13.1426856 L3.33099627,13.1426856 L3.33099627,5.44042969 C2.87130197,5.60642558 2.43433365,5.74654242 2.01842913,5.79434754 Z"/>
    <path fill="#D49630" fill-rule="nonzero" d="M11.5211491,6.79594391 L12.2001761,4 L16.3557074,4 L13.2652819,14 L9.604976,14 L6.66348664,4 L10.8495035,4 L11.033615,4.76642329 L11.5211491,6.79594391 Z"/>
    <path fill="#ECBD4A" d="M15,5 L12.5276596,13 L10.3531915,13 L8,5 L10.0612766,5 L11.2706383,10.034358 C11.4017028,10.5840895 11.4751772,11.0446033 11.4910638,11.4159132 L11.5208511,11.4159132 C11.5526243,11.0349589 11.6300703,10.5889115 11.7531915,10.0777577 L12.986383,5 L15,5 Z"/>
  </g>
</svg>
