<svg xmlns="http://www.w3.org/2000/svg" width="20" height="20" viewBox="0 0 20 20">
  <g fill="none" fill-rule="evenodd">
    <rect width="20" height="20" fill="#FFE1DD" rx="4"/>
    <path fill="#F8AAAA" fill-rule="nonzero" d="M4,1 C2.34314575,1 1,2.34314575 1,4 L1,16 C1,17.6568542 2.34314575,19 4,19 L16,19 C17.6568542,19 19,17.6568542 19,16 L19,4 C19,2.34314575 17.6568542,1 16,1 L4,1 Z M4,0 L16,0 C18.209139,-4.05812251e-16 20,1.790861 20,4 L20,16 C20,18.209139 18.209139,20 16,20 L4,20 C1.790861,20 2.705415e-16,18.209139 0,16 L0,4 C-2.705415e-16,1.790861 1.790861,4.05812251e-16 4,0 Z"/>
    <path fill="#F58383" fill-rule="nonzero" d="M6,4 L14,4 L17.5,8 L10,17 L2.5,8 L6,4 Z M10,15.4379501 L16.1850917,8.01583997 L13.5462318,5 L6.45376823,5 L3.81490825,8.01583997 L10,15.4379501 Z M4,8 L16,8 L16,9 L4,9 L4,8 Z M10.4472136,14.2763932 L7.4472136,8.2763932 L6.5527864,8.7236068 L9.5527864,14.7236068 L10.4472136,14.2763932 Z M8.56587843,4.75193053 L6.56587843,8.25193053 L7.43412157,8.74806947 L9.43412157,5.24806947 L8.56587843,4.75193053 Z M10.5658784,5.24806947 L12.5658784,8.74806947 L13.4341216,8.25193053 L11.4341216,4.75193053 L10.5658784,5.24806947 Z M10.4472136,14.7236068 L13.4472136,8.7236068 L12.5527864,8.2763932 L9.5527864,14.2763932 L10.4472136,14.7236068 Z"/>
  </g>
</svg>
