<svg xmlns="http://www.w3.org/2000/svg" width="20" height="20" viewBox="0 0 20 20">
  <g fill="none" fill-rule="evenodd">
    <path fill="#ADA5A6" fill-rule="nonzero" d="M3.99336657,1 C2.34054775,1 1,2.34277455 1,4 L1,16 C1,17.6572255 2.34054775,19 3.99336657,19 L15.9734663,19 C17.6262851,19 18.9668329,17.6572255 18.9668329,16 L18.9668329,4 C18.9668329,2.34277455 17.6262851,1 15.9734663,1 L3.99336657,1 Z M3.99336657,0 L15.9734663,0 C18.1789418,0 19.9668329,1.790861 19.9668329,4 L19.9668329,16 C19.9668329,18.209139 18.1789418,20 15.9734663,20 L3.99336657,20 C1.78789111,20 0,18.209139 0,16 L0,4 C0,1.790861 1.78789111,0 3.99336657,0 Z"/>
    <path fill="#FFF" d="M4.59369825,1.00166111 L15.374793,1.00166111 C17.3595377,1.00166111 18.9684912,2.61328727 18.9684912,4.60132889 L18.9684912,15.4003322 C18.9684912,17.3883738 17.3595377,19 15.374793,19 L4.59369825,19 C2.60895351,19 1,17.3883738 1,15.4003322 L1,4.60132889 C1,2.61328727 2.60895351,1.00166111 4.59369825,1.00166111 Z"/>
    <path stroke="#ADA5A6" stroke-linecap="square" d="M1.49751247 1.5L18.5 18.5M18.4693204 1.5L1.49751247 18.5"/>
  </g>
</svg>
