<svg xmlns="http://www.w3.org/2000/svg" width="20" height="20" viewBox="0 0 20 20">
  <g fill="none" fill-rule="evenodd">
    <rect width="20" height="20" fill="#FFA56B" rx="4"/>
    <path fill="#DB7D3E" fill-rule="nonzero" d="M4,1 C2.34314575,1 1,2.34314575 1,4 L1,16 C1,17.6568542 2.34314575,19 4,19 L16,19 C17.6568542,19 19,17.6568542 19,16 L19,4 C19,2.34314575 17.6568542,1 16,1 L4,1 Z M4,0 L16,0 C18.209139,-4.05812251e-16 20,1.790861 20,4 L20,16 C20,18.209139 18.209139,20 16,20 L4,20 C1.790861,20 2.705415e-16,18.209139 0,16 L0,4 C-2.705415e-16,1.790861 1.790861,4.05812251e-16 4,0 Z"/>
    <path fill="#AB4D0F" d="M6.90625,7.38671875 L15.6601562,7.38671875 L15.6601562,8.18359375 L13.0703125,8.18359375 C13.0703125,8.58593951 13.0664063,8.98046682 13.0585938,9.3671875 L15.3085938,9.3671875 L15.3085938,14.03125 C15.3085938,14.9453171 14.8671919,15.4023438 13.984375,15.4023438 C13.6015606,15.4023438 13.1757836,15.3906251 12.7070312,15.3671875 C12.6679686,15.070311 12.6093754,14.7695328 12.53125,14.4648438 C13.039065,14.5273441 13.4531234,14.5585938 13.7734375,14.5585938 C14.2265648,14.5585938 14.453125,14.3320335 14.453125,13.8789062 L14.453125,13.0644531 C14.3007805,13.2050788 14.1054699,13.3867176 13.8671875,13.609375 C13.4453104,13.0664035 13.0371113,12.5722679 12.6425781,12.1269531 C12.3339828,13.0136763 11.8515658,13.7499971 11.1953125,14.3359375 C11.0234366,14.1249989 10.8242199,13.9101573 10.5976562,13.6914062 C11.5312547,12.8867147 12.0605462,11.7109452 12.1855469,10.1640625 L10.2636719,10.1640625 C10.2480468,10.4765641 10.2128909,10.7753892 10.1582031,11.0605469 C10.5957053,11.4550801 11.0234354,11.8710916 11.4414062,12.3085938 C11.3710934,12.3710941 11.160158,12.5781232 10.8085938,12.9296875 C10.5117173,12.5859358 10.2187514,12.2578141 9.9296875,11.9453125 C9.64062355,12.7968793 9.17187824,13.5156221 8.5234375,14.1015625 C8.39062434,13.9414054 8.24609453,13.7695322 8.08984375,13.5859375 L8.08984375,15.4960938 L7.234375,15.4960938 L7.234375,9.3671875 L9.4609375,9.3671875 C9.46875004,8.96093547 9.47265625,8.56640816 9.47265625,8.18359375 L6.90625,8.18359375 L6.90625,7.38671875 Z M6.91796875,5.3125 L9.15625,5.3125 L9.15625,4.01171875 L10.046875,4.01171875 L10.046875,5.3125 L12.53125,5.3125 L12.53125,4 L13.421875,4 L13.421875,5.3125 L15.6835938,5.3125 L15.6835938,6.109375 L13.421875,6.109375 L13.421875,7.1171875 L12.53125,7.1171875 L12.53125,6.109375 L10.046875,6.109375 L10.046875,7.12890625 L9.15625,7.12890625 L9.15625,6.109375 L6.91796875,6.109375 L6.91796875,5.3125 Z M5.39453125,10.65625 C5.72265789,10.8125008 6.03906098,10.9414057 6.34375,11.0429688 C5.99999828,12.4336007 5.65234551,13.902336 5.30078125,15.4492188 L4.26953125,15.1445312 C4.6601582,13.9101501 5.03515445,12.4140713 5.39453125,10.65625 Z M8.08984375,13.3222656 C8.89453527,12.5683556 9.34179643,11.5156318 9.43164062,10.1640625 L8.08984375,10.1640625 L8.08984375,13.3222656 Z M14.453125,10.1640625 L13.0234375,10.1640625 C12.9999999,10.5351581 12.9531254,10.8886702 12.8828125,11.2246094 C13.5117219,11.8691438 14.0351542,12.4257789 14.453125,12.8945313 L14.453125,10.1640625 Z M4.5859375,7.26953125 C5.29687855,7.80859645 5.93749715,8.33202871 6.5078125,8.83984375 C6.21874855,9.16015785 5.99218832,9.41015535 5.828125,9.58984375 C5.21093441,8.99609078 4.60156551,8.44531504 4,7.9375 L4.5859375,7.26953125 Z M10.2871094,9.3671875 L12.2207031,9.3671875 C12.2285157,8.99999816 12.234375,8.60547086 12.2382812,8.18359375 L10.3046875,8.18359375 C10.3007812,8.5234392 10.2949219,8.9179665 10.2871094,9.3671875 Z M4.99609375,4.19921875 C5.53515895,4.62109586 6.09374711,5.08984117 6.671875,5.60546875 C6.42968629,5.85547 6.20703227,6.09374887 6.00390625,6.3203125 C5.48827867,5.7812473 4.95703398,5.28515852 4.41015625,4.83203125 L4.99609375,4.19921875 Z"/>
  </g>
</svg>
