<svg xmlns="http://www.w3.org/2000/svg" width="20" height="20" viewBox="0 0 20 20">
  <g fill="none" fill-rule="evenodd">
    <rect width="20" height="20" fill="#E9F8D8" rx="4"/>
    <path fill="#86C43D" fill-rule="nonzero" d="M4,1 C2.34314575,1 1,2.34314575 1,4 L1,16 C1,17.6568542 2.34314575,19 4,19 L16,19 C17.6568542,19 19,17.6568542 19,16 L19,4 C19,2.34314575 17.6568542,1 16,1 L4,1 Z M4,0 L16,0 C18.209139,-4.05812251e-16 20,1.790861 20,4 L20,16 C20,18.209139 18.209139,20 16,20 L4,20 C1.790861,20 2.705415e-16,18.209139 0,16 L0,4 C-2.705415e-16,1.790861 1.790861,4.05812251e-16 4,0 Z"/>
    <path fill="#88C83F" d="M8,13 L6.25,13 L5.5,13 C5.22385763,13 5,12.7761424 5,12.5 L5,8.5 C5,8.22385763 5.22385763,8 5.5,8 L5.5,8 L6.5,8 C6.77614237,8 7,8.22385763 7,8.5 L7,11 L8,11 C8.10248852,11 8.20137599,11.0154179 8.29446952,11.0440609 C8.35716437,11.0157548 8.42674232,11 8.5,11 C8.77614237,11 9,11.2238576 9,11.5 L9,15.5 C9,15.7761424 8.77614237,16 8.5,16 C8.22385763,16 8,15.7761424 8,15.5 L8,13 Z M6,4 L7,4 L7,4 C7.55228475,4 8,4.44771525 8,5 L8,6 C8,6.55228475 7.55228475,7 7,7 L6,7 C5.44771525,7 5,6.55228475 5,6 L5,5 L5,5 C5,4.44771525 5.44771525,4 6,4 L6,4 Z"/>
    <path fill="#88C83F" d="M14,13 L12.25,13 L11.5,13 C11.2238576,13 11,12.7761424 11,12.5 L11,8.5 C11,8.22385763 11.2238576,8 11.5,8 L11.5,8 L12.5,8 C12.7761424,8 13,8.22385763 13,8.5 L13,11 L14,11 C14.1024885,11 14.201376,11.0154179 14.2944695,11.0440609 C14.3571644,11.0157548 14.4267423,11 14.5,11 C14.7761424,11 15,11.2238576 15,11.5 L15,15.5 C15,15.7761424 14.7761424,16 14.5,16 C14.2238576,16 14,15.7761424 14,15.5 L14,13 Z M12,4 L13,4 L13,4 C13.5522847,4 14,4.44771525 14,5 L14,6 C14,6.55228475 13.5522847,7 13,7 L12,7 C11.4477153,7 11,6.55228475 11,6 L11,5 L11,5 C11,4.44771525 11.4477153,4 12,4 L12,4 Z" transform="matrix(-1 0 0 1 26 0)"/>
  </g>
</svg>
