<svg xmlns="http://www.w3.org/2000/svg" width="20" height="20" viewBox="0 0 20 20">
  <g fill="none" fill-rule="evenodd">
    <rect width="20" height="20" fill="#DDF8EF" rx="4"/>
    <path fill="#60BAB2" fill-rule="nonzero" d="M4,1 C2.34314575,1 1,2.34314575 1,4 L1,16 C1,17.6568542 2.34314575,19 4,19 L16,19 C17.6568542,19 19,17.6568542 19,16 L19,4 C19,2.34314575 17.6568542,1 16,1 L4,1 Z M4,0 L16,0 C18.209139,-4.05812251e-16 20,1.790861 20,4 L20,16 C20,18.209139 18.209139,20 16,20 L4,20 C1.790861,20 2.705415e-16,18.209139 0,16 L0,4 C-2.705415e-16,1.790861 1.790861,4.05812251e-16 4,0 Z"/>
    <path fill="#3DA89F" d="M15.6484375,13.7148438 C15.453124,14.0117202 15.2617197,14.3046861 15.0742188,14.59375 C13.6562429,13.8554651 12.5117231,12.8046943 11.640625,11.4414062 L11.640625,15.2382812 L10.796875,15.2382812 L10.796875,11.4765625 C9.81640135,12.8671945 8.71484986,13.9609335 7.4921875,14.7578125 C7.26562387,14.4687486 7.03906363,14.2109386 6.8125,13.984375 C8.25391346,13.2148399 9.44140158,12.2421934 10.375,11.0664062 L7.19921875,11.0664062 L7.19921875,10.2929688 L10.796875,10.2929688 L10.796875,9.015625 L8.6171875,9.015625 L8.6171875,9.390625 L7.796875,9.390625 L7.796875,4.234375 L14.640625,4.234375 L14.640625,9.390625 L13.8203125,9.390625 L13.8203125,9.015625 L11.640625,9.015625 L11.640625,10.2929688 L15.3203125,10.2929688 L15.3203125,11.0664062 L12.0625,11.0664062 C13.0273486,12.2968812 14.2226491,13.1796848 15.6484375,13.7148438 Z M7.703125,12.3085938 C7.11718457,12.8242213 6.60937715,13.2929666 6.1796875,13.7148438 C5.96093641,13.9414074 5.76562586,14.1601552 5.59375,14.3710938 L4.9375,13.609375 C5.17968871,13.3828114 5.30078125,13.0468772 5.30078125,12.6015625 L5.30078125,8.5 L4,8.5 L4,7.64453125 L6.16796875,7.64453125 L6.16796875,12.5195312 C6.5585957,12.1757795 6.99609133,11.7695336 7.48046875,11.3007812 C7.54296906,11.6367204 7.61718707,11.9726546 7.703125,12.3085938 Z M13.8203125,4.984375 L11.640625,4.984375 L11.640625,6.26171875 L13.8203125,6.26171875 L13.8203125,4.984375 Z M11.640625,8.265625 L13.8203125,8.265625 L13.8203125,6.98828125 L11.640625,6.98828125 L11.640625,8.265625 Z M8.6171875,6.26171875 L10.796875,6.26171875 L10.796875,4.984375 L8.6171875,4.984375 L8.6171875,6.26171875 Z M8.6171875,8.265625 L10.796875,8.265625 L10.796875,6.98828125 L8.6171875,6.98828125 L8.6171875,8.265625 Z M5.2890625,4 C5.99219102,4.6796909 6.57031023,5.30077844 7.0234375,5.86328125 L6.296875,6.4609375 C5.74999727,5.75780898 5.20703395,5.1210966 4.66796875,4.55078125 L5.2890625,4 Z"/>
  </g>
</svg>
