<svg xmlns="http://www.w3.org/2000/svg" width="20" height="20" viewBox="0 0 20 20">
  <g fill="none" fill-rule="evenodd">
    <rect width="20" height="20" fill="#F2E9FD" rx="4"/>
    <path fill="#BCA8FF" fill-rule="nonzero" d="M4,1 C2.34314575,1 1,2.34314575 1,4 L1,16 C1,17.6568542 2.34314575,19 4,19 L16,19 C17.6568542,19 19,17.6568542 19,16 L19,4 C19,2.34314575 17.6568542,1 16,1 L4,1 Z M4,0 L16,0 C18.209139,-4.05812251e-16 20,1.790861 20,4 L20,16 C20,18.209139 18.209139,20 16,20 L4,20 C1.790861,20 2.705415e-16,18.209139 0,16 L0,4 C-2.705415e-16,1.790861 1.790861,4.05812251e-16 4,0 Z"/>
    <path fill="#9964F5" d="M4,11.4765625 C4.8203166,10.078118 5.39843582,8.69141313 5.734375,7.31640625 L4.12890625,7.31640625 L4.12890625,6.5078125 L5.76953125,6.5078125 L5.76953125,4.08203125 L6.625,4.08203125 L6.625,6.5078125 L7.984375,6.5078125 L7.984375,7.31640625 L6.625,7.31640625 L6.625,8.40625 L7.03515625,8.08984375 C7.58984652,8.79297227 7.9726552,9.30859211 8.18359375,9.63671875 L7.55078125,10.1054688 C7.30859254,9.73827941 7.00000187,9.28515895 6.625,8.74609375 L6.625,15.6367188 L5.76953125,15.6367188 L5.76953125,9.37890625 C5.36327922,10.6992254 4.89844012,11.7421837 4.375,12.5078125 C4.27343699,12.1718733 4.14843824,11.8281268 4,11.4765625 Z M10.1054688,9.484375 C10.5273459,10.5937555 11.0468719,11.5039027 11.6640625,12.2148438 C12.2421904,11.5039027 12.7187481,10.5585996 13.09375,9.37890625 L13.9960938,9.70703125 C13.4804662,11.0586005 12.921878,12.1093712 12.3203125,12.859375 C13.2031294,13.5937537 14.3203057,14.1484356 15.671875,14.5234375 C15.4843741,14.7500011 15.2851573,15.042967 15.0742188,15.4023438 C13.6679617,14.9101538 12.5390668,14.2890662 11.6875,13.5390625 C10.789058,14.3984418 9.60156988,15.1132784 8.125,15.6835938 C7.96874922,15.4335925 7.78125109,15.1523453 7.5625,14.8398438 C9.00781973,14.3320287 10.1640582,13.6796915 11.03125,12.8828125 C10.3671842,12.1328088 9.80859602,11.1211001 9.35546875,9.84765625 L10.1054688,9.484375 Z M8.3828125,5.875 L11.546875,5.875 C11.3828117,5.42968527 11.1601577,4.91797164 10.8789062,4.33984375 L11.6640625,4 C11.9687515,4.5390652 12.2265614,5.05077883 12.4375,5.53515625 L11.6757812,5.875 L15.4375,5.875 L15.4375,6.6953125 L8.3828125,6.6953125 L8.3828125,5.875 Z M10.1054688,6.953125 L10.9140625,7.3515625 C10.2265591,8.53906844 9.50781625,9.62890129 8.7578125,10.6210938 C8.52343633,10.4570304 8.27734504,10.2929696 8.01953125,10.1289062 C8.83203531,9.09765109 9.52734086,8.03906793 10.1054688,6.953125 Z M12.4257812,7.52734375 L13.0585938,7 C13.9101605,7.90625453 14.7187462,8.83593273 15.484375,9.7890625 L14.7695312,10.3984375 C14.0898404,9.45312027 13.3085982,8.49609859 12.4257812,7.52734375 Z"/>
  </g>
</svg>
