<svg xmlns="http://www.w3.org/2000/svg" width="20" height="20" viewBox="0 0 20 20">
  <g fill="none" fill-rule="evenodd">
    <rect width="20" height="20" fill="#EAF5FA" rx="4"/>
    <path fill="#A8CEFF" fill-rule="nonzero" d="M4,1 C2.34314575,1 1,2.34314575 1,4 L1,16 C1,17.6568542 2.34314575,19 4,19 L16,19 C17.6568542,19 19,17.6568542 19,16 L19,4 C19,2.34314575 17.6568542,1 16,1 L4,1 Z M4,0 L16,0 C18.209139,-4.05812251e-16 20,1.790861 20,4 L20,16 C20,18.209139 18.209139,20 16,20 L4,20 C1.790861,20 2.705415e-16,18.209139 0,16 L0,4 C-2.705415e-16,1.790861 1.790861,4.05812251e-16 4,0 Z"/>
    <path fill="#4689DF" d="M10.6445312,13.7734375 L12.6835938,13.7734375 L12.6835938,9.671875 L11.0898438,9.671875 L11.0898438,8.828125 L12.6835938,8.828125 L12.6835938,5.4765625 L11.0078125,5.4765625 L11.0078125,4.6328125 L15.2617188,4.6328125 L15.2617188,5.4765625 L13.5507812,5.4765625 L13.5507812,8.828125 L15.1914062,8.828125 L15.1914062,9.671875 L13.5507812,9.671875 L13.5507812,13.7734375 L15.5898438,13.7734375 L15.5898438,14.6171875 L10.6445312,14.6171875 L10.6445312,13.7734375 Z M4,13.0703125 C4.550784,13.0078122 5.10937217,12.9394535 5.67578125,12.8652344 L5.67578125,9.16796875 L4.15234375,9.16796875 L4.15234375,8.30078125 L5.67578125,8.30078125 L5.67578125,5.546875 L4.03515625,5.546875 L4.03515625,4.6796875 L8.13671875,4.6796875 L8.13671875,5.546875 L6.53125,5.546875 L6.53125,8.30078125 L7.9375,8.30078125 L7.9375,9.16796875 L6.53125,9.16796875 L6.53125,12.7480469 C7.07422146,12.6699215 7.62499721,12.5859379 8.18359375,12.4960938 C8.15234359,12.8085953 8.13281254,13.1054673 8.125,13.3867188 C6.93749406,13.5664071 5.60156992,13.7773425 4.1171875,14.0195312 L4,13.0703125 Z M9.765625,4 L10.609375,4 C10.609375,5.89063445 10.5976564,7.62889832 10.5742188,9.21484375 C10.5429686,11.8789196 9.8671941,13.906243 8.546875,15.296875 C8.34374898,15.0859364 8.09375148,14.8789073 7.796875,14.6757812 C9.06250633,13.4570252 9.70703113,11.6171998 9.73046875,9.15625 C9.75390637,8.09374469 9.765625,6.37501187 9.765625,4 Z M8.265625,6.015625 L9.05078125,6.015625 C9.04296871,7.57813281 8.98437555,9.16796066 8.875,10.7851562 C8.60156113,10.7773437 8.339845,10.7734375 8.08984375,10.7734375 C8.19140676,9.39843062 8.24999992,7.81250898 8.265625,6.015625 Z"/>
  </g>
</svg>
