<svg xmlns="http://www.w3.org/2000/svg" width="20" height="20" viewBox="0 0 20 20">
  <g fill="none" fill-rule="evenodd">
    <rect width="20" height="20" fill="#EAF5FA" rx="4"/>
    <path fill="#A8CEFF" fill-rule="nonzero" d="M4,1 C2.34314575,1 1,2.34314575 1,4 L1,16 C1,17.6568542 2.34314575,19 4,19 L16,19 C17.6568542,19 19,17.6568542 19,16 L19,4 C19,2.34314575 17.6568542,1 16,1 L4,1 Z M4,0 L16,0 C18.209139,-4.05812251e-16 20,1.790861 20,4 L20,16 C20,18.209139 18.209139,20 16,20 L4,20 C1.790861,20 2.705415e-16,18.209139 0,16 L0,4 C-2.705415e-16,1.790861 1.790861,4.05812251e-16 4,0 Z"/>
    <path fill="#4689DF" d="M10.5742188,5.04296875 C12.1914143,5.02734367 13.6835869,4.86718902 15.0507812,4.5625 L15.3554688,5.46484375 C13.808586,5.66796977 12.4921929,5.80078094 11.40625,5.86328125 L11.40625,8.59375 L15.6835938,8.59375 L15.6835938,9.390625 L14.0078125,9.390625 L14.0078125,15.53125 L13.140625,15.53125 L13.140625,9.390625 L11.40625,9.390625 L11.40625,9.96484375 C11.40625,12.3632932 10.832037,14.2304621 9.68359375,15.5664063 C9.49609281,15.3242175 9.28906363,15.07422 9.0625,14.8164063 C10.0703175,13.7148382 10.5742188,12.0859483 10.5742188,9.9296875 L10.5742188,5.04296875 Z M4.328125,10.3046875 L6.71875,10.3046875 L6.71875,9.19140625 L7.5625,9.19140625 L7.5625,10.3046875 L9.859375,10.3046875 L9.859375,11.0546875 L7.5625,11.0546875 L7.5625,14.1132812 C7.5625,14.9414104 7.16406648,15.3554688 6.3671875,15.3554688 C6.03124832,15.3554688 5.65234586,15.3515625 5.23046875,15.34375 C5.19921859,15.0859362 5.15625027,14.7890642 5.1015625,14.453125 C5.55468977,14.5000002 5.91015496,14.5234375 6.16796875,14.5234375 C6.53515809,14.5234375 6.71875,14.3242207 6.71875,13.9257812 L6.71875,11.0546875 L4.328125,11.0546875 L4.328125,10.3046875 Z M4,8.11328125 L5.88671875,8.11328125 C5.55468584,7.58593486 5.24218896,7.13281439 4.94921875,6.75390625 L5.58203125,6.30859375 C5.83984504,6.62109531 6.17187297,7.06249715 6.578125,7.6328125 L5.91601562,8.11328125 L7.46289062,8.11328125 C7.888674,7.49999693 8.2812482,6.89453424 8.640625,6.296875 L9.47265625,6.765625 C9.09374811,7.25390869 8.73242359,7.70312295 8.38867188,8.11328125 L10.1640625,8.11328125 L10.1640625,8.86328125 L4,8.86328125 L4,8.11328125 Z M4.375,5.39453125 L6.90625,5.39453125 C6.73828041,5.07421715 6.54687607,4.72656437 6.33203125,4.3515625 L7.08203125,4 C7.32421996,4.39843949 7.5507802,4.80077922 7.76171875,5.20703125 L7.36914062,5.39453125 L9.859375,5.39453125 L9.859375,6.14453125 L4.375,6.14453125 L4.375,5.39453125 Z M5.23046875,11.5820312 L6.02734375,11.9570312 C5.60546664,12.8398482 5.18750207,13.6367152 4.7734375,14.3476562 C4.54687387,14.2070305 4.28906395,14.066407 4,13.9257812 C4.38281441,13.3320283 4.79296656,12.5507861 5.23046875,11.5820312 Z M8.60546875,11.640625 C9.04297094,12.234378 9.42577961,12.7812475 9.75390625,13.28125 L9.00390625,13.796875 C8.66015453,13.1953095 8.29687691,12.6289089 7.9140625,12.0976562 L8.60546875,11.640625 Z"/>
  </g>
</svg>
