<svg xmlns="http://www.w3.org/2000/svg" width="30" height="30" viewBox="0 0 30 30">
  <g fill="none" fill-rule="evenodd">
    <path fill="#7BA5C6" fill-rule="nonzero" d="M4,1 C2.34314575,1 1,2.34314575 1,4 L1,26 C1,27.6568542 2.34314575,29 4,29 L26,29 C27.6568542,29 29,27.6568542 29,26 L29,4 C29,2.34314575 27.6568542,1 26,1 L4,1 Z M4,0 L26,0 C28.209139,0 30,1.790861 30,4 L30,26 C30,28.209139 28.209139,30 26,30 L4,30 C1.790861,30 0,28.209139 0,26 L0,4 C0,1.790861 1.790861,0 4,0 Z"/>
    <rect width="28" height="28" x="1" y="1" fill="#89B5D7" rx="3"/>
    <g fill="#FFF" transform="translate(4 8)">
      <rect width="12.139" height="3.923" y="9.154" transform="rotate(45 6.07 11.115)"/>
      <rect width="19.167" height="3.923" x="4.937" y="6.361" transform="rotate(135 14.52 8.322)"/>
    </g>
  </g>
</svg>
