<svg xmlns="http://www.w3.org/2000/svg" width="20" height="20" viewBox="0 0 20 20">
  <g fill="none" fill-rule="evenodd">
    <rect width="20" height="20" fill="#E2F0FF" rx="4"/>
    <path fill="#90BFF6" fill-rule="nonzero" d="M4,1 C2.34314575,1 1,2.34314575 1,4 L1,16 C1,17.6568542 2.34314575,19 4,19 L16,19 C17.6568542,19 19,17.6568542 19,16 L19,4 C19,2.34314575 17.6568542,1 16,1 L4,1 Z M4,0 L16,0 C18.209139,-4.05812251e-16 20,1.790861 20,4 L20,16 C20,18.209139 18.209139,20 16,20 L4,20 C1.790861,20 2.705415e-16,18.209139 0,16 L0,4 C-2.705415e-16,1.790861 1.790861,4.05812251e-16 4,0 Z"/>
    <path fill="#4990E2" d="M6.97596622,12.0338316 L10.3861936,12.0338316 L10.3861936,6.70774609 L11.2930331,6.70774609 L11.2930331,12.0338316 L14.9587082,12.0338316 L14.9587082,12.8895815 L11.2930331,12.8895815 L11.2930331,14.6777157 L15.5973276,14.6777157 L15.5973276,15.5590104 L6.26071254,15.5590104 L6.26071254,14.6777157 L10.3861936,14.6777157 L10.3861936,12.8895815 L6.97596622,12.8895815 L6.97596622,12.0338316 Z M13.4387941,9.31331308 C13.1067121,10.1562906 12.7107681,10.8587719 12.2254174,11.4463017 L11.6634323,10.7438204 C12.4425479,9.77311902 12.9662158,8.47033552 13.2472083,6.80992519 L14.0774135,6.96319383 C13.962462,7.57626842 13.8219658,8.12548107 13.6686971,8.63637656 C14.2689993,9.23667876 14.8693015,9.90084289 15.4696037,10.6160966 L14.9587082,11.3952122 C14.358406,10.4883727 13.8475105,9.79866379 13.4387941,9.31331308 Z M8.31706688,9.42826456 C7.97221242,10.2456973 7.55072364,10.9481786 7.05260054,11.5229361 L6.49061551,10.8204548 C7.30804829,9.83698095 7.85726094,8.50865268 8.15102584,6.83546996 L9.00677579,6.98873861 C8.87905191,7.62735797 8.73855565,8.21488778 8.55974223,8.75132804 C9.07063772,9.26222353 9.54321605,9.84975334 9.97747721,10.5139175 L9.46658173,11.3058055 C9.08341011,10.5522346 8.70023849,9.92638767 8.31706688,9.42826456 Z M15.4823761,5.22614917 L15.4823761,6.12021628 L6.13298866,6.12021628 L6.13298866,9.17281682 C6.08189912,11.9571972 5.60932079,14.1795926 4.68970891,15.8527753 L4,15.2397007 C4.76634323,13.7836486 5.17505962,11.7656114 5.21337678,9.17281682 L5.21337678,5.22614917 L9.92638767,5.22614917 C9.77311902,4.84297756 9.60707798,4.48535071 9.42826456,4.15326865 L10.398966,4 C10.5522346,4.35762684 10.7055033,4.76634323 10.8587719,5.22614917 L15.4823761,5.22614917 Z"/>
  </g>
</svg>
