<svg xmlns="http://www.w3.org/2000/svg" width="20" height="20" viewBox="0 0 20 20">
  <g fill="none" fill-rule="evenodd">
    <rect width="20" height="20" fill="#FFECAE" rx="4"/>
    <path fill="#F5BD10" fill-rule="nonzero" d="M4,1 C2.34314575,1 1,2.34314575 1,4 L1,16 C1,17.6568542 2.34314575,19 4,19 L16,19 C17.6568542,19 19,17.6568542 19,16 L19,4 C19,2.34314575 17.6568542,1 16,1 L4,1 Z M4,0 L16,0 C18.209139,-4.05812251e-16 20,1.790861 20,4 L20,16 C20,18.209139 18.209139,20 16,20 L4,20 C1.790861,20 2.705415e-16,18.209139 0,16 L0,4 C-2.705415e-16,1.790861 1.790861,4.05812251e-16 4,0 Z"/>
    <path fill="#D68300" d="M4.45703125,10.1992188 L9.4609375,10.1992188 L9.4609375,8.5703125 L6.58984375,8.5703125 L6.58984375,7.984375 C5.97265316,8.40625211 5.30469109,8.80859184 4.5859375,9.19140625 C4.42187418,8.92577992 4.22656363,8.64062652 4,8.3359375 C6.41407457,7.13280648 8.23436887,5.68750844 9.4609375,4 L10.703125,4 L10.46875,4.29296875 C11.773444,5.98047719 13.5117079,7.25780816 15.6835938,8.125 C15.441405,8.46093918 15.2343759,8.76562363 15.0625,9.0390625 C14.367184,8.70312332 13.7109406,8.32812707 13.09375,7.9140625 L13.09375,8.5703125 L10.4101562,8.5703125 L10.4101562,10.1992188 L15.2382812,10.1992188 L15.2382812,11.078125 L10.4101562,11.078125 L10.4101562,13.7851562 C10.4101562,14.8632866 9.88281777,15.4023438 8.828125,15.4023438 C8.46093566,15.4023438 7.96875309,15.3945313 7.3515625,15.3789062 C7.3124998,15.0820298 7.26171906,14.7578143 7.19921875,14.40625 C7.78515918,14.4687503 8.26952934,14.5039062 8.65234375,14.5117188 C9.19140895,14.5273438 9.4609375,14.2539091 9.4609375,13.6914062 L9.4609375,11.078125 L4.45703125,11.078125 L4.45703125,10.1992188 Z M9.8828125,5.0078125 C9.13280875,5.96094227 8.17188086,6.85546457 7,7.69140625 L12.765625,7.69140625 C11.6874946,6.92577742 10.7265667,6.03125512 9.8828125,5.0078125 Z M12.25,11.5820312 C13.4843812,12.535161 14.5312457,13.3906212 15.390625,14.1484375 L14.6640625,14.8984375 C13.7031202,13.9765579 12.6835991,13.0820356 11.6054688,12.2148438 L12.25,11.5820312 Z M6.9296875,11.5703125 L7.7734375,12.1328125 C6.82030773,13.2734432 5.92187922,14.2187462 5.078125,14.96875 C4.85937391,14.7734365 4.59765777,14.5585949 4.29296875,14.3242188 C5.28516121,13.5429648 6.16405867,12.6250053 6.9296875,11.5703125 Z"/>
  </g>
</svg>
