<svg xmlns="http://www.w3.org/2000/svg" xmlns:xlink="http://www.w3.org/1999/xlink" width="40" height="346" viewBox="0 0 40 346"><svg width="20" height="20" viewBox="0 0 20 20" id="Tag-sit" y="0"><g fill="none" fill-rule="evenodd"><rect width="20" height="20" fill="#E2F0FF" rx="4"></rect><path fill="#90BFF6" fill-rule="nonzero" d="M4 1a3 3 0 0 0-3 3v12a3 3 0 0 0 3 3h12a3 3 0 0 0 3-3V4a3 3 0 0 0-3-3H4zm0-1h12a4 4 0 0 1 4 4v12a4 4 0 0 1-4 4H4a4 4 0 0 1-4-4V4a4 4 0 0 1 4-4z"></path><path fill="#4990E2" d="M6.976 12.034h3.41V6.708h.907v5.326h3.666v.856h-3.666v1.788h4.304v.881H6.261v-.881h4.125V12.89h-3.41v-.856zm6.463-2.72c-.332.842-.728 1.545-1.214 2.132l-.562-.702c.78-.97 1.303-2.274 1.584-3.934l.83.153a16.074 16.074 0 0 1-.408 1.673c.6.6 1.2 1.265 1.8 1.98l-.51.78c-.6-.908-1.111-1.597-1.52-2.083zm-5.122.114c-.345.818-.766 1.52-1.264 2.095l-.562-.703c.817-.983 1.366-2.311 1.66-3.985l.856.154A14.762 14.762 0 0 1 8.56 8.75c.51.511.983 1.099 1.417 1.763l-.51.792c-.384-.754-.767-1.38-1.15-1.878zm7.165-4.202v.894H6.133v3.053c-.051 2.784-.524 5.007-1.443 6.68L4 15.24c.766-1.456 1.175-3.474 1.213-6.067V5.226h4.713a10.44 10.44 0 0 0-.498-1.073L10.4 4c.153.358.307.766.46 1.226h4.623z"></path></g></svg><svg width="20" height="20" viewBox="0 0 20 20" id="tag-balance" y="20"><g fill="none" fill-rule="evenodd"><rect width="20" height="20" fill="#FFECAE" rx="4"></rect><path fill="#F5BD10" fill-rule="nonzero" d="M4 1a3 3 0 0 0-3 3v12a3 3 0 0 0 3 3h12a3 3 0 0 0 3-3V4a3 3 0 0 0-3-3H4zm0-1h12a4 4 0 0 1 4 4v12a4 4 0 0 1-4 4H4a4 4 0 0 1-4-4V4a4 4 0 0 1 4-4z"></path><path fill="#D68300" d="M4.457 10.2h5.004V8.57H6.59v-.586c-.617.422-1.285.825-2.004 1.207-.164-.265-.36-.55-.586-.855C6.414 7.133 8.234 5.688 9.46 4h1.243l-.234.293c1.304 1.687 3.043 2.965 5.215 3.832-.243.336-.45.64-.621.914a16.097 16.097 0 0 1-1.97-1.125v.656H10.41v1.63h4.828v.878H10.41v2.707c0 1.078-.527 1.617-1.582 1.617-.367 0-.86-.007-1.476-.023a21.95 21.95 0 0 0-.153-.973c.586.063 1.07.098 1.453.106.54.015.809-.258.809-.82v-2.614H4.457V10.2zm5.426-5.192C9.133 5.96 8.172 6.855 7 7.69h5.766a14.907 14.907 0 0 1-2.883-2.683zm2.367 6.574a63.366 63.366 0 0 1 3.14 2.566l-.726.75a46.632 46.632 0 0 0-3.059-2.683l.645-.633zm-5.32-.012l.843.563c-.953 1.14-1.851 2.086-2.695 2.836-.219-.196-.48-.41-.785-.645.992-.781 1.871-1.699 2.637-2.754z"></path></g></svg><svg width="20" height="20" viewBox="0 0 20 20" id="tag-class" y="40"><g fill="none" fill-rule="evenodd"><rect width="20" height="20" fill="#EAF5FA" rx="4"></rect><path fill="#A8CEFF" fill-rule="nonzero" d="M4 1a3 3 0 0 0-3 3v12a3 3 0 0 0 3 3h12a3 3 0 0 0 3-3V4a3 3 0 0 0-3-3H4zm0-1h12a4 4 0 0 1 4 4v12a4 4 0 0 1-4 4H4a4 4 0 0 1-4-4V4a4 4 0 0 1 4-4z"></path><path fill="#4689DF" d="M10.645 13.773h2.039V9.672H11.09v-.844h1.594V5.477h-1.676v-.844h4.254v.844H13.55v3.351h1.64v.844h-1.64v4.101h2.039v.844h-4.945v-.844zM4 13.07c.55-.062 1.11-.13 1.676-.205V9.168H4.152v-.867h1.524V5.547h-1.64V4.68h4.1v.867H6.532V8.3h1.407v.867H6.53v3.58c.543-.078 1.094-.162 1.653-.252-.032.313-.051.61-.059.89-1.188.18-2.523.391-4.008.634L4 13.07zM9.766 4h.843c0 1.89-.011 3.629-.035 5.215-.031 2.664-.707 4.691-2.027 6.082a4.802 4.802 0 0 0-.75-.621c1.266-1.219 1.91-3.059 1.933-5.52.024-1.062.036-2.781.036-5.156zm-1.5 2.016h.785a76.34 76.34 0 0 1-.176 4.77 27.532 27.532 0 0 0-.785-.013c.101-1.375.16-2.96.176-4.757z"></path></g></svg><svg width="20" height="20" viewBox="0 0 20 20" id="tag-currency" y="60"><g fill="none" fill-rule="evenodd"><rect width="20" height="20" fill="#FFEAC5" rx="4"></rect><path fill="#F9D088" fill-rule="nonzero" d="M4 1a3 3 0 0 0-3 3v12a3 3 0 0 0 3 3h12a3 3 0 0 0 3-3V4a3 3 0 0 0-3-3H4zm0-1h12a4 4 0 0 1 4 4v12a4 4 0 0 1-4 4H4a4 4 0 0 1-4-4V4a4 4 0 0 1 4-4z"></path><path fill="#FA935A" d="M10.017 8H7v1h3v2H7v1h3v2.5a.5.5 0 1 0 1 0V12h3v-1h-3V9h3V8h-3.017L14 4.5 13 4l-2.5 3.146L8 4l-1 .5L10.017 8z"></path></g></svg><svg width="20" height="20" viewBox="0 0 20 20" id="tag-diamond" y="80"><g fill="none" fill-rule="evenodd"><rect width="20" height="20" fill="#FFE1DD" rx="4"></rect><path fill="#F8AAAA" fill-rule="nonzero" d="M4 1a3 3 0 0 0-3 3v12a3 3 0 0 0 3 3h12a3 3 0 0 0 3-3V4a3 3 0 0 0-3-3H4zm0-1h12a4 4 0 0 1 4 4v12a4 4 0 0 1-4 4H4a4 4 0 0 1-4-4V4a4 4 0 0 1 4-4z"></path><path fill="#F58383" fill-rule="nonzero" d="M6 4h8l3.5 4-7.5 9-7.5-9L6 4zm4 11.438l6.185-7.422L13.546 5H6.454l-2.64 3.016L10 15.438zM4 8h12v1H4V8zm6.447 6.276l-3-6-.894.448 3 6 .894-.448zM8.566 4.752l-2 3.5.868.496 2-3.5-.868-.496zm2 .496l2 3.5.868-.496-2-3.5-.868.496zm-.119 9.476l3-6-.894-.448-3 6 .894.448z"></path></g></svg><svg width="20" height="20" viewBox="0 0 20 20" id="tag-full" y="100"><g fill="none" fill-rule="evenodd"><rect width="20" height="20" fill="#FFA56B" rx="4"></rect><path fill="#DB7D3E" fill-rule="nonzero" d="M4 1a3 3 0 0 0-3 3v12a3 3 0 0 0 3 3h12a3 3 0 0 0 3-3V4a3 3 0 0 0-3-3H4zm0-1h12a4 4 0 0 1 4 4v12a4 4 0 0 1-4 4H4a4 4 0 0 1-4-4V4a4 4 0 0 1 4-4z"></path><path fill="#AB4D0F" d="M6.906 7.387h8.754v.797h-2.59c0 .402-.004.796-.011 1.183h2.25v4.664c0 .914-.442 1.371-1.325 1.371-.382 0-.808-.011-1.277-.035a7.65 7.65 0 0 0-.176-.902c.508.062.922.094 1.242.094.454 0 .68-.227.68-.68v-.815l-.586.545a29.944 29.944 0 0 0-1.224-1.482c-.309.887-.791 1.623-1.448 2.209a7.4 7.4 0 0 0-.597-.645c.933-.804 1.463-1.98 1.588-3.527h-1.922c-.016.313-.051.611-.106.897.438.394.865.81 1.283 1.248-.07.062-.28.27-.632.62a38.73 38.73 0 0 0-.88-.984 5.035 5.035 0 0 1-1.406 2.157c-.132-.16-.277-.332-.433-.516v1.91h-.856V9.367h2.227c.008-.406.012-.8.012-1.183H6.906v-.797zm.012-2.074h2.238V4.011h.89v1.3h2.485V4h.89v1.313h2.263v.796h-2.262v1.008h-.89V6.11h-2.485v1.02h-.89v-1.02H6.917v-.796zm-1.523 5.343c.328.157.644.285.949.387-.344 1.39-.692 2.86-1.043 4.406l-1.031-.304c.39-1.235.765-2.73 1.125-4.489zm2.695 2.666c.805-.754 1.252-1.806 1.342-3.158H8.09v3.158zm6.363-3.158h-1.43c-.023.371-.07.725-.14 1.06a52.264 52.264 0 0 1 1.57 1.67v-2.73zM4.586 7.27a31.66 31.66 0 0 1 1.922 1.57l-.68.75A37.984 37.984 0 0 0 4 7.938l.586-.668zm5.701 2.097h1.934c.008-.367.013-.762.017-1.183h-1.933c-.004.34-.01.734-.018 1.183zM4.997 4.2c.538.422 1.097.89 1.675 1.406-.242.25-.465.489-.668.715A18.851 18.851 0 0 0 4.41 4.832l.586-.633z"></path></g></svg><svg width="30" height="30" viewBox="0 0 30 30" id="tag-hook" y="120"><g fill="none" fill-rule="evenodd"><path fill="#7BA5C6" fill-rule="nonzero" d="M4 1a3 3 0 0 0-3 3v22a3 3 0 0 0 3 3h22a3 3 0 0 0 3-3V4a3 3 0 0 0-3-3H4zm0-1h22a4 4 0 0 1 4 4v22a4 4 0 0 1-4 4H4a4 4 0 0 1-4-4V4a4 4 0 0 1 4-4z"></path><rect width="28" height="28" x="1" y="1" fill="#89B5D7" rx="3"></rect><g fill="#FFF" transform="translate(4 8)"><path d="M3.164 5.436l8.584 8.584-2.774 2.774L.391 8.21z"></path><path d="M22.683 2.932L9.13 16.486l-2.774-2.774L19.909.158z"></path></g></g></svg><svg width="20" height="20" viewBox="0 0 20 20" id="tag-jiaocai" y="150"><g fill="none" fill-rule="evenodd"><rect width="20" height="20" fill="#F2E9FD" rx="4"></rect><path fill="#BCA8FF" fill-rule="nonzero" d="M4 1a3 3 0 0 0-3 3v12a3 3 0 0 0 3 3h12a3 3 0 0 0 3-3V4a3 3 0 0 0-3-3H4zm0-1h12a4 4 0 0 1 4 4v12a4 4 0 0 1-4 4H4a4 4 0 0 1-4-4V4a4 4 0 0 1 4-4z"></path><path fill="#9964F5" d="M9.578 9.963c.883-1.625 1.59-3.54 2.121-5.742l.856.21c-.157.641-.336 1.278-.54 1.91h3.657v.845h-1.149c-.054 2.015-.546 3.75-1.476 5.203.71.976 1.644 1.738 2.8 2.285-.218.32-.402.61-.55.867-1.14-.656-2.07-1.457-2.79-2.402-.788.984-1.812 1.824-3.07 2.52-.14-.204-.332-.462-.574-.774 1.305-.664 2.348-1.504 3.13-2.52-.548-.914-.919-1.945-1.114-3.094-.18.383-.363.762-.55 1.137-.25-.164-.5-.312-.75-.445zm.352-4.734l.703.457a24.11 24.11 0 0 1-1.594 2.109h.867v.773H8.371c-.312.352-.633.692-.96 1.02h1.921v.703L7.82 11.779v.211c.633-.11 1.332-.234 2.098-.375-.023.297-.04.567-.047.809-.64.11-1.324.23-2.05.363v1.277c.054.97-.4 1.434-1.36 1.395-.336 0-.77-.008-1.3-.023-.032-.25-.071-.543-.118-.88.367.04.785.063 1.254.071.492.047.719-.172.68-.656v-1.032c-.758.141-1.555.293-2.391.457l-.14-.855c.648-.094 1.491-.227 2.53-.398v-.586l1.231-1.22h-1.57A30.125 30.125 0 0 1 4.69 11.98a6.71 6.71 0 0 0-.55-.668c.453-.32.875-.645 1.265-.973h-.972v-.75H6.25c.367-.328.723-.668 1.066-1.02H4.281v-.773H6.59V6.6H4.75v-.774h1.84V4.232h.844v1.594h1.441V6.6H7.434v1.195h.574A19.105 19.105 0 0 0 9.93 5.229zm1.535 2.636c.156 1.422.512 2.653 1.066 3.692.711-1.235 1.09-2.692 1.137-4.371h-1.945a12.06 12.06 0 0 1-.258.68z"></path></g></svg><svg width="20" height="20" viewBox="0 0 20 20" id="tag-kemu" y="170"><title>Tag-kemu</title><g fill="none" fill-rule="evenodd"><rect fill="#EAF5FA" width="20" height="20" rx="4"></rect><path d="M4 1a3 3 0 0 0-3 3v12a3 3 0 0 0 3 3h12a3 3 0 0 0 3-3V4a3 3 0 0 0-3-3H4zm0-1h12a4 4 0 0 1 4 4v12a4 4 0 0 1-4 4H4a4 4 0 0 1-4-4V4a4 4 0 0 1 4-4z" fill="#A8CEFF" fill-rule="nonzero"></path><path d="M4 12.273a13.092 13.092 0 0 0 2.016-3.996H4.164v-.832h1.922V5.723c-.602.062-1.168.117-1.7.164a5.952 5.952 0 0 0-.234-.867 54.21 54.21 0 0 0 4.512-.516l.305.867c-.703.094-1.371.176-2.004.246v1.828h1.863v.832H6.965v1.325l.515-.47c.563.485 1.082.958 1.56 1.419l-.657.668c-.5-.563-.973-1.051-1.418-1.465v5.742h-.88v-5.285c-.46 1.203-1.007 2.223-1.64 3.059-.133-.32-.28-.653-.445-.997zm4.23-.62l4.594-.41V4h.903v7.16l1.851-.176.07.844-1.921.176v3.492h-.903v-3.41l-4.5.41-.094-.844zm1.395-5.825l.54-.586c.866.664 1.57 1.246 2.108 1.746l-.609.692a25.533 25.533 0 0 0-2.039-1.852zm-.691 2.813l.562-.598c.89.695 1.563 1.25 2.016 1.664l-.61.715c-.367-.383-1.023-.977-1.968-1.781z" fill="#4689DF"></path></g></svg><svg width="20" height="20" viewBox="0 0 20 20" id="tag-lesson" y="190"><g fill="none" fill-rule="evenodd"><rect width="20" height="20" fill="#DDF8EF" rx="4"></rect><path fill="#60BAB2" fill-rule="nonzero" d="M4 1a3 3 0 0 0-3 3v12a3 3 0 0 0 3 3h12a3 3 0 0 0 3-3V4a3 3 0 0 0-3-3H4zm0-1h12a4 4 0 0 1 4 4v12a4 4 0 0 1-4 4H4a4 4 0 0 1-4-4V4a4 4 0 0 1 4-4z"></path><path fill="#3DA89F" d="M15.648 13.715l-.574.879a8.879 8.879 0 0 1-3.433-3.153v3.797h-.844v-3.761c-.98 1.39-2.082 2.484-3.305 3.28a8.563 8.563 0 0 0-.68-.773c1.442-.77 2.63-1.742 3.563-2.918H7.199v-.773h3.598V9.016h-2.18v.375h-.82V4.234h6.844v5.157h-.82v-.375h-2.18v1.277h3.68v.773h-3.258c.964 1.23 2.16 2.114 3.585 2.649zm-7.945-1.406c-.586.515-1.094.984-1.523 1.406-.22.226-.414.445-.586.656l-.657-.762c.243-.226.364-.562.364-1.007V8.5H4v-.855h2.168v4.875c.39-.344.828-.75 1.312-1.22.063.337.137.673.223 1.009zm6.117-7.325h-2.18v1.278h2.18V4.984zm-2.18 3.282h2.18V6.988h-2.18v1.278zM8.618 6.262h2.18V4.984h-2.18v1.278zm0 2.004h2.18V6.988h-2.18v1.278zM5.29 4c.703.68 1.281 1.3 1.734 1.863l-.726.598a26.17 26.17 0 0 0-1.629-1.91L5.289 4z"></path></g></svg><svg width="20" height="20" viewBox="0 0 20 20" id="tag-new" y="210"><g fill="none" fill-rule="evenodd"><rect width="20" height="20" fill="#EAF5FA" rx="4"></rect><path fill="#A8CEFF" fill-rule="nonzero" d="M4 1a3 3 0 0 0-3 3v12a3 3 0 0 0 3 3h12a3 3 0 0 0 3-3V4a3 3 0 0 0-3-3H4zm0-1h12a4 4 0 0 1 4 4v12a4 4 0 0 1-4 4H4a4 4 0 0 1-4-4V4a4 4 0 0 1 4-4z"></path><path fill="#4689DF" d="M10.574 5.043c1.617-.016 3.11-.176 4.477-.48l.304.902a55.65 55.65 0 0 1-3.949.398v2.73h4.278v.798h-1.676v6.14h-.867v-6.14h-1.735v.574c0 2.398-.574 4.265-1.722 5.601a15.701 15.701 0 0 0-.621-.75c1.007-1.101 1.511-2.73 1.511-4.886V5.043zm-6.246 5.262h2.39V9.19h.845v1.114h2.296v.75H7.563v3.058c0 .828-.399 1.242-1.196 1.242-.336 0-.715-.003-1.137-.011a22.387 22.387 0 0 0-.128-.89c.453.046.808.07 1.066.07.367 0 .55-.2.55-.598v-2.871h-2.39v-.75zM4 8.113h1.887c-.332-.527-.645-.98-.938-1.36l.633-.444c.258.312.59.753.996 1.324l-.662.48h1.547c.426-.613.818-1.218 1.178-1.816l.832.469c-.38.488-.74.937-1.084 1.347h1.775v.75H4v-.75zm.375-2.718h2.531a32.11 32.11 0 0 0-.574-1.043L7.082 4c.242.398.469.8.68 1.207l-.393.188h2.49v.75H4.375v-.75zm.855 6.187l.797.375c-.422.883-.84 1.68-1.254 2.39A8.632 8.632 0 0 0 4 13.927c.383-.594.793-1.375 1.23-2.344zm3.375.059c.438.593.82 1.14 1.149 1.64l-.75.516a19.184 19.184 0 0 0-1.09-1.7l.691-.456z"></path></g></svg><svg width="20" height="20" viewBox="0 0 20 20" id="tag-notoption" y="230"><g fill="none" fill-rule="evenodd"><path fill="#ADA5A6" fill-rule="nonzero" d="M3.993 1A2.997 2.997 0 0 0 1 4v12c0 1.657 1.34 3 2.993 3h11.98a2.997 2.997 0 0 0 2.994-3V4c0-1.657-1.34-3-2.994-3H3.993zm0-1h11.98a3.997 3.997 0 0 1 3.994 4v12c0 2.21-1.788 4-3.994 4H3.993A3.997 3.997 0 0 1 0 16V4c0-2.21 1.788-4 3.993-4z"></path><path fill="#FFF" d="M4.594 1.002h10.78a3.597 3.597 0 0 1 3.594 3.6V15.4c0 1.988-1.608 3.6-3.593 3.6H4.594A3.597 3.597 0 0 1 1 15.4V4.601c0-1.988 1.609-3.6 3.594-3.6z"></path><path stroke="#ADA5A6" stroke-linecap="square" d="M1.498 1.5l17.002 17m-.03-17l-16.972 17"></path></g></svg><svg width="21" height="16" viewBox="0 0 21 16" id="tag-oneToOne" y="250"><g fill="none" fill-rule="evenodd"><path fill="#D5E9E8" d="M19.553 3.321v10.822H17.33V5.81c-.273.237-.647.45-1.121.639a5.15 5.15 0 0 1-1.306.352V4.907c1.249-.364 2.329-.893 3.24-1.586h1.409z"></path><path fill="#4A90E2" fill-rule="nonzero" d="M19.553 3.321h-1.409c-.911.693-1.991 1.222-3.24 1.586v1.894a5.15 5.15 0 0 0 1.306-.352c.474-.19.848-.402 1.121-.64v8.334h2.222V3.32zm-4.535 4.473l-1.114.128V4.158l.72-.21c1.135-.332 2.105-.807 2.915-1.423l.269-.204h2.745v12.822H16.33v-7.67c-.46.166-.897.274-1.313.321z"></path><path fill="#D5E9E8" d="M6.553 1.321v10.822H4.33V3.81c-.273.237-.647.45-1.121.639a5.15 5.15 0 0 1-1.306.352V2.907c1.249-.364 2.329-.893 3.24-1.586h1.409z"></path><path fill="#4A90E2" fill-rule="nonzero" d="M6.553 1.321H5.144c-.911.693-1.991 1.222-3.24 1.586v1.894a5.15 5.15 0 0 0 1.306-.352c.474-.19.848-.402 1.121-.64v8.334h2.222V1.32zM2.018 5.794l-1.114.128V2.158l.72-.21C2.759 1.615 3.729 1.14 4.539.524l.269-.204h2.745v12.822H3.33V5.44c-.46.166-.897.307-1.313.354z"></path><path fill="#D49630" fill-rule="nonzero" d="M11.521 6.796L12.201 4h4.155l-3.09 10H9.604L6.663 4h4.187l.184.766.487 2.03z"></path><path fill="#ECBD4A" d="M15 5l-2.472 8h-2.175L8 5h2.061l1.21 5.034c.13.55.204 1.01.22 1.382h.03c.032-.381.11-.827.232-1.338L12.986 5H15z"></path></g></svg><svg width="40" height="20" viewBox="0 0 40 20" id="tag-renew" y="266"><g fill="none" fill-rule="evenodd"><rect width="40" height="20" fill="#EAF5FA" rx="4"></rect><path fill="#A8CEFF" fill-rule="nonzero" d="M4 1a3 3 0 0 0-3 3v12a3 3 0 0 0 3 3h32a3 3 0 0 0 3-3V4a3 3 0 0 0-3-3H4zm0-1h32a4 4 0 0 1 4 4v12a4 4 0 0 1-4 4H4a4 4 0 0 1-4-4V4a4 4 0 0 1 4-4z"></path><path fill="#4689DF" d="M12.078 7.223h3.211V6.039h-2.754v-.797h2.754V4h.89v1.242h2.79v.797h-2.79v1.184h3.34v.797c-.359.687-.726 1.292-1.101 1.816a5.473 5.473 0 0 0-.844-.316c.375-.5.703-1 .985-1.5h-6.48v-.797zm-.047 4.582h3.528c.18-.72.261-1.844.246-3.375h.855c0 1.484-.074 2.61-.223 3.375h3.094v.797h-3.093a81.85 81.85 0 0 1 3.199 2.238l-.657.726a32.287 32.287 0 0 0-3.07-2.355c-.703 1.102-1.969 1.91-3.797 2.426a6.696 6.696 0 0 0-.492-.82c1.922-.524 3.133-1.262 3.633-2.215H12.03v-.797zm-2.625-.996a44.041 44.041 0 0 0 2.39-.282c-.03.336-.058.602-.081.797-.914.11-2.024.258-3.328.446l-.188-.856C8.684 10.5 9.277 9.695 9.98 8.5c-.718.047-1.3.09-1.746.129L8 7.855c.594-.812 1.246-2.082 1.957-3.808l.89.328c-.702 1.375-1.327 2.512-1.874 3.41.414 0 .886-.008 1.418-.023.273-.5.562-1.055.867-1.664l.82.386c-.992 1.758-1.883 3.2-2.672 4.325zM8.082 13.62c1.227-.203 2.488-.437 3.785-.703-.031.422-.047.71-.047.867-1.14.227-2.3.469-3.48.727l-.258-.89zm4.137-3.34l.469-.55c.765.476 1.355.894 1.769 1.253l-.539.645c-.352-.336-.918-.785-1.7-1.348zm.82-1.3l.48-.563c.626.352 1.208.746 1.747 1.184l-.528.632A24.74 24.74 0 0 0 13.04 8.98zm7.781-3.95h3.364c.015-.351.023-.68.023-.984h.844c0 .305-.008.633-.024.984h2.04v-.984h.843v.984h2.824v2.672h-.843V7.41h-1.98v1.055h3.35a10.05 10.05 0 0 1-.128 1.441c-.086.547-.438.82-1.055.82h-.351v2.86h-.844v-2.39H23v2.53h-.844v-2.53c-.476.21-1.02.406-1.629.585a4.454 4.454 0 0 0-.504-.808c1.782-.383 2.957-.993 3.528-1.828h-2.578l.375-2.415h2.789c.023-.304.035-.644.035-1.02H20.82v-.679zm7.91 4.875c.438.047.801.07 1.09.07.313 0 .492-.117.54-.351a3.82 3.82 0 0 0 .058-.48H27.91v1.148h-.844V9.145h-2.52c-.21.476-.577.91-1.1 1.3h5.449a8.973 8.973 0 0 0-.165-.539zm-3.21 1.946h.832c0 .5-.055.941-.165 1.324a92.966 92.966 0 0 1 4.852 1.558l-.434.844a135.802 135.802 0 0 0-4.71-1.652c-.485.789-2.086 1.344-4.805 1.664a5.491 5.491 0 0 0-.399-.844c1.805-.172 3.16-.473 4.067-.902.523-.258.777-.922.762-1.992zm-.75-3.387h2.296V7.41h-2.132c-.04.414-.094.766-.164 1.055zm-2.848 0h1.957c.086-.274.152-.625.2-1.055h-2.017l-.14 1.055zM24.98 6.73h2.086V5.71h-2.05c0 .368-.012.708-.036 1.02zm4.91-1.02h-1.98v1.02h1.98V5.71z"></path></g></svg><svg width="20" height="20" viewBox="0 0 20 20" id="tag-school" y="286"><g fill="none" fill-rule="evenodd"><rect width="20" height="20" fill="#F2E9FD" rx="4"></rect><path fill="#BCA8FF" fill-rule="nonzero" d="M4 1a3 3 0 0 0-3 3v12a3 3 0 0 0 3 3h12a3 3 0 0 0 3-3V4a3 3 0 0 0-3-3H4zm0-1h12a4 4 0 0 1 4 4v12a4 4 0 0 1-4 4H4a4 4 0 0 1-4-4V4a4 4 0 0 1 4-4z"></path><path fill="#9964F5" d="M4 11.477c.82-1.399 1.398-2.786 1.734-4.16H4.13v-.81h1.64V4.083h.856v2.426h1.36v.808h-1.36v1.09l.41-.316c.555.703.938 1.219 1.149 1.547l-.633.468c-.242-.367-.551-.82-.926-1.359v6.89H5.77V9.38c-.407 1.32-.872 2.363-1.395 3.129A10.37 10.37 0 0 0 4 11.477zm6.105-1.993c.422 1.11.942 2.02 1.56 2.73.577-.71 1.054-1.655 1.429-2.835l.902.328c-.516 1.352-1.074 2.402-1.676 3.152.883.735 2 1.29 3.352 1.664-.188.227-.387.52-.598.88-1.406-.493-2.535-1.114-3.386-1.864-.899.86-2.086 1.574-3.563 2.145-.156-.25-.344-.532-.563-.844 1.446-.508 2.602-1.16 3.47-1.957-.665-.75-1.223-1.762-1.677-3.035l.75-.364zM8.383 5.875h3.164a17.066 17.066 0 0 0-.668-1.535l.785-.34c.305.54.563 1.05.774 1.535l-.762.34h3.761v.82H8.383v-.82zm1.722 1.078l.81.399a32.026 32.026 0 0 1-2.157 3.27c-.235-.165-.48-.329-.738-.493a21.337 21.337 0 0 0 2.085-3.176zm2.32.574L13.06 7c.851.906 1.66 1.836 2.425 2.79l-.714.608a32.123 32.123 0 0 0-2.344-2.87z"></path></g></svg><svg width="20" height="20" viewBox="0 0 20 20" id="tag-waitpos" y="306"><g fill="none" fill-rule="evenodd"><path fill="#D4901E" fill-rule="nonzero" d="M4 1a3 3 0 0 0-3 3v12a3 3 0 0 0 3 3h12a3 3 0 0 0 3-3V4a3 3 0 0 0-3-3H4zm0-1h12a4 4 0 0 1 4 4v12a4 4 0 0 1-4 4H4a4 4 0 0 1-4-4V4a4 4 0 0 1 4-4z"></path><rect width="18" height="18" x="1" y="1" fill="#F6A623" rx="3"></rect><path fill="#FFF" d="M14 7.6C14 5.358 11.963 4 9.5 4S5 5.358 5 7.6h1.8c0-1.058 1.113-1.8 2.7-1.8 1.587 0 2.7.742 2.7 1.8s-1.113 1.8-2.7 1.8h-.9V13h1.8v-1.863c2.04-.29 3.6-1.575 3.6-3.537zM8.59 14h2.067v2H8.59z"></path></g></svg><svg width="20" height="20" viewBox="0 0 20 20" id="tag-zafei" y="326"><g fill="none" fill-rule="evenodd"><rect width="20" height="20" fill="#FFBA8D" rx="4"></rect><path fill="#DB7D3E" fill-rule="nonzero" d="M4 1a3 3 0 0 0-3 3v12a3 3 0 0 0 3 3h12a3 3 0 0 0 3-3V4a3 3 0 0 0-3-3H4zm0-1h12a4 4 0 0 1 4 4v12a4 4 0 0 1-4 4H4a4 4 0 0 1-4-4V4a4 4 0 0 1 4-4z"></path><path fill="#E25600" d="M12.871 5.275v2.696c0 .5.211.75.633.75h.41c.469 0 .742-.192.82-.575.086-.382.153-.87.2-1.464.39.172.691.293.902.363-.07.531-.148.996-.234 1.394-.165.75-.707 1.125-1.63 1.125h-.597c-.96 0-1.441-.503-1.441-1.511V6.119H8.682c-.25 1.684-1.526 2.938-3.827 3.762a6.58 6.58 0 0 0-.562-.844c2.012-.633 3.154-1.605 3.428-2.918H4.844v-.844h2.965c.023-.379.035-.808.035-1.289h.937c0 .48-.01.91-.029 1.29h4.12zm-8.578 5.04h5.191V8.837h.961v1.476h4.875v.844h-4.875v2.895c0 .875-.441 1.312-1.324 1.312H7.586l-.176-.949c.5.047.977.07 1.43.07.43 0 .644-.238.644-.715v-2.613H4.293v-.844zm7.406 2.285l.586-.727a55.334 55.334 0 0 1 3.27 2.203l-.645.856A37.004 37.004 0 0 0 11.7 12.6zm-4.511-.868l.726.645c-1 .945-2.055 1.836-3.164 2.672a7.15 7.15 0 0 0-.621-.762 22.007 22.007 0 0 0 3.059-2.555z"></path></g></svg></svg>